<svg version="1.1" viewBox="0.0 0.0 411.18372703412075 439.0734908136483" fill="none" stroke="none" stroke-linecap="square" stroke-miterlimit="10" xmlns:xlink="http://www.w3.org/1999/xlink" xmlns="http://www.w3.org/2000/svg"><clipPath id="p.0"><path d="m0 0l411.18372 0l0 439.0735l-411.18372 0l0 -439.0735z" clip-rule="nonzero"/></clipPath><g clip-path="url(#p.0)"><path fill="#000000" fill-opacity="0.0" d="m0 0l411.18372 0l0 439.0735l-411.18372 0z" fill-rule="evenodd"/><path fill="#000000" fill-opacity="0.0" d="m47.80831 33.085354l0 0c65.63926 -55.619858 189.64581 -17.165699 276.97638 85.88977l0 0c87.33057 103.05546 104.914856 231.68723 39.275574 287.30707l0 0c-65.63925 55.619873 -189.6458 17.16571 -276.97638 -85.88974l0 0c-87.33057 -103.05548 -104.91485 -231.68724 -39.27559 -287.3071z" fill-rule="evenodd"/><path stroke="#ffffff" stroke-width="8.0" stroke-linejoin="round" stroke-linecap="butt" d="m47.80831 33.085354l0 0c65.63926 -55.619858 189.64581 -17.165699 276.97638 85.88977l0 0c87.33057 103.05546 104.914856 231.68723 39.275574 287.30707l0 0c-65.63925 55.619873 -189.6458 17.16571 -276.97638 -85.88974l0 0c-87.33057 -103.05548 -104.91485 -231.68724 -39.27559 -287.3071z" fill-rule="evenodd"/><defs><radialGradient id="p.1" gradientUnits="userSpaceOnUse" gradientTransform="matrix(8.395476952513294 -4.82073617076554 4.82073617076554 8.395476952513294 0.0 0.0)" spreadMethod="pad" cx="5.150870170198849" cy="13.47853888784014" fx="5.150870170198849" fy="13.47853888784014" r="8.395477294921875"><stop offset="0.0" stop-color="#ffffff"/><stop offset="1.0" stop-color="#ffffff" stop-opacity="0.0"/></radialGradient></defs><path fill="url(#p.1)" d="m68.53545 111.11518l0 0c-18.45588 -32.180374 -15.649727 -68.469986 6.2677155 -81.05512l0 0c10.525124 -6.0435963 24.139915 -5.700758 37.849266 0.9530926c13.709351 6.6538506 26.390274 19.073662 35.253098 34.52722l0 0c18.455872 32.180374 15.649719 68.469986 -6.2677155 81.055115l0 0c-21.917442 12.585144 -54.646484 -3.299942 -73.10236 -35.48031z" fill-rule="evenodd"/><defs><radialGradient id="p.2" gradientUnits="userSpaceOnUse" gradientTransform="matrix(6.190974174481494 -3.5520550485008187 3.5520550485008187 6.190974174481494 0.0 0.0)" spreadMethod="pad" cx="6.766952220139689" cy="33.48066980841923" fx="6.766952220139689" fy="33.48066980841923" r="6.190974235534668"><stop offset="0.0" stop-color="#ffffff"/><stop offset="1.0" stop-color="#ffffff" stop-opacity="0.0"/></radialGradient></defs><path fill="url(#p.2)" d="m138.50424 196.04453l0 0c-9.871536 -17.212143 -7.883255 -36.897522 4.4409485 -43.968506l0 0c5.9183044 -3.3955994 13.477341 -3.3686523 21.014236 0.07493591c7.5368958 3.443573 14.434265 10.021698 19.174744 18.287277l0 0c9.8715515 17.212143 7.8832703 36.897507 -4.4409485 43.96849l0 0c-12.3242035 7.070984 -30.317429 -1.1500549 -40.18898 -18.362198z" fill-rule="evenodd"/><defs><radialGradient id="p.3" gradientUnits="userSpaceOnUse" gradientTransform="matrix(7.865490076188117 -0.35721591610327996 0.35721591610327996 7.865490076188117 0.0 0.0)" spreadMethod="pad" cx="11.734099663050342" cy="28.274744814664704" fx="11.734099663050342" fy="28.274744814664704" r="7.865489959716797"><stop offset="0.0" stop-color="#ffffff"/><stop offset="1.0" stop-color="#ffffff" stop-opacity="0.0"/></radialGradient></defs><path fill="url(#p.3)" d="m65.638725 219.8724l0 0c-1.2437286 -27.48378 14.204216 -50.51114 34.503937 -51.433075l0 0c9.748276 -0.4427185 19.334541 4.375641 26.64994 13.395111c7.315399 9.01947 11.760681 21.501205 12.357941 34.699387l0 0c1.2437286 27.48378 -14.204216 50.511154 -34.503944 51.43306l0 0c-20.29972 0.92193604 -37.764145 -20.610703 -39.007874 -48.094482z" fill-rule="evenodd"/><defs><radialGradient id="p.4" gradientUnits="userSpaceOnUse" gradientTransform="matrix(6.714581463037234 -8.888826889351469 8.888826889351469 6.714581463037234 0.0 0.0)" spreadMethod="pad" cx="-0.45522100730704307" cy="29.865694586896467" fx="-0.45522100730704307" fy="29.865694586896467" r="8.888827323913574"><stop offset="0.0" stop-color="#ffffff"/><stop offset="1.0" stop-color="#ffffff" stop-opacity="0.0"/></radialGradient></defs><path fill="url(#p.4)" d="m221.07579 259.30643l0 0c-31.467194 -23.787384 -38.46846 -67.57182 -15.637802 -97.79527l0 0c10.963684 -14.513809 27.481155 -23.89537 45.918793 -26.080841c18.437622 -2.1854553 37.285095 3.0041962 52.39618 14.427292l0 0c31.467163 23.787384 38.468445 67.57182 15.637787 97.79529l0 0c-22.830658 30.22345 -66.84778 35.440918 -98.31496 11.653534z" fill-rule="evenodd"/><defs><radialGradient id="p.5" gradientUnits="userSpaceOnUse" gradientTransform="matrix(7.568478544296052 -3.110045787704727 3.110045787704727 7.568478544296052 0.0 0.0)" spreadMethod="pad" cx="7.2275635222930665" cy="39.59149941470949" fx="7.2275635222930665" fy="39.59149941470949" r="7.568478584289551"><stop offset="0.0" stop-color="#ffffff"/><stop offset="1.0" stop-color="#ffffff" stop-opacity="0.0"/></radialGradient></defs><path fill="url(#p.5)" d="m143.80154 291.15363l0 0c-10.454269 -25.448608 -3.6927185 -52.33972 15.102356 -60.063004l0 0c9.025711 -3.7088623 19.676071 -2.4111023 29.608124 3.607788c9.932037 6.0188904 18.332184 16.265854 23.352509 28.48671l0 0c10.454269 25.448578 3.6927185 52.33969 -15.102356 60.06299l0 0c-18.79509 7.7232666 -42.506363 -6.6459045 -52.960632 -32.094482z" fill-rule="evenodd"/><defs><radialGradient id="p.6" gradientUnits="userSpaceOnUse" gradientTransform="matrix(6.12513105704467 -6.778321916607325 6.778321916607325 6.12513105704467 0.0 0.0)" spreadMethod="pad" cx="-4.265198841505482" cy="52.78870766561102" fx="-4.265198841505482" fy="52.78870766561102" r="6.778321743011475"><stop offset="0.0" stop-color="#ffffff"/><stop offset="1.0" stop-color="#ffffff" stop-opacity="0.0"/></radialGradient></defs><path fill="url(#p.6)" d="m307.03253 379.53998l0 0c-20.41278 -18.447174 -25.919342 -45.62033 -12.299194 -60.6929l0 0c6.5405884 -7.2381287 16.707397 -10.660706 28.263763 -9.514801c11.556366 1.145874 23.555695 6.766388 33.358276 15.6250305l0 0c20.41278 18.447174 25.919342 45.62033 12.299194 60.6929l0 0c-13.620117 15.072601 -41.20926 12.336945 -61.62204 -6.1102295z" fill-rule="evenodd"/><defs><radialGradient id="p.7" gradientUnits="userSpaceOnUse" gradientTransform="matrix(5.941072054524033 -6.83688644388525 6.83688644388525 5.941072054524033 0.0 0.0)" spreadMethod="pad" cx="8.578850528763999" cy="22.034563695450803" fx="8.578850528763999" fy="22.034563695450803" r="6.836886405944824"><stop offset="0.0" stop-color="#ffffff"/><stop offset="1.0" stop-color="#ffffff" stop-opacity="0.0"/></radialGradient></defs><path fill="url(#p.7)" d="m177.4894 100.02008l0 0c-20.760681 -18.055794 -26.788986 -45.123177 -13.464569 -60.45669l0 0c6.3986053 -7.363411 16.495575 -10.980814 28.069672 -10.056423c11.574097 0.9243927 23.67723 6.3148575 33.646866 14.985558l0 0c20.760681 18.055798 26.788986 45.123184 13.464569 60.456696l0 0c-13.324417 15.333511 -40.955856 13.126663 -61.716537 -4.929138z" fill-rule="evenodd"/><defs><radialGradient id="p.8" gradientUnits="userSpaceOnUse" gradientTransform="matrix(4.997305566239426 -6.3397982568790745 6.3397982568790745 4.997305566239426 0.0 0.0)" spreadMethod="pad" cx="-16.963355940640955" cy="53.122636620564215" fx="-16.963355940640955" fy="53.122636620564215" r="6.339798450469971"><stop offset="0.0" stop-color="#ffffff"/><stop offset="1.0" stop-color="#ffffff" stop-opacity="0.0"/></radialGradient></defs><path fill="url(#p.8)" d="m234.48817 395.25052l0 0c-18.490677 -14.576843 -25.632965 -36.349182 -15.952759 -48.629913l0 0c4.64859 -5.8974304 12.634171 -8.772522 22.200012 -7.992859c9.565826 0.7796936 19.92833 5.150299 28.807846 12.15033l0 0c18.490692 14.576843 25.632965 36.349213 15.952759 48.629913l0 0c-9.680206 12.280731 -32.517197 10.419373 -51.00786 -4.1574707z" fill-rule="evenodd"/><defs><radialGradient id="p.9" gradientUnits="userSpaceOnUse" gradientTransform="matrix(5.5914516817830835 -3.211103121330726 3.211103121330726 5.5914516817830835 0.0 0.0)" spreadMethod="pad" cx="-3.483747752895407" cy="24.841345428229396" fx="-3.483747752895407" fy="24.841345428229396" r="5.591451644897461"><stop offset="0.0" stop-color="#ffffff"/><stop offset="1.0" stop-color="#ffffff" stop-opacity="0.0"/></radialGradient></defs><path fill="url(#p.9)" d="m39.832222 161.8339l0 0c-7.4884605 -13.063492 -4.400284 -28.913315 6.8976364 -35.40158l0 0c5.425453 -3.1157684 12.057232 -3.6118698 18.436424 -1.3791504c6.3791885 2.2327194 11.983238 7.0113525 15.579323 13.284668l0 0c7.4884644 13.063492 4.400284 28.913315 -6.8976364 35.401566l0 0c-11.29792 6.488266 -26.527287 1.1579895 -34.015747 -11.905502z" fill-rule="evenodd"/><defs><radialGradient id="p.10" gradientUnits="userSpaceOnUse" gradientTransform="matrix(7.0990007573247516 -5.717898166276402 5.717898166276402 7.0990007573247516 0.0 0.0)" spreadMethod="pad" cx="-10.629692671438473" cy="38.01654199252758" fx="-10.629692671438473" fy="38.01654199252758" r="7.099000930786133"><stop offset="0.0" stop-color="#ffffff"/><stop offset="1.0" stop-color="#ffffff" stop-opacity="0.0"/></radialGradient></defs><path fill="url(#p.10)" d="m125.158615 344.15503l0 0c-21.143372 -26.248749 -30.781593 -53.569946 -21.527557 -61.02362l0 0c4.443939 -3.5793762 12.739296 -2.0048218 23.06118 4.37735c10.321877 6.382141 21.824776 17.049042 31.978188 29.654144l0 0c21.143372 26.248749 30.781586 53.569946 21.527557 61.02362l0 0c-4.443939 3.5793762 -12.739304 2.0047913 -23.061188 -4.37735c-10.321884 -6.382141 -21.824768 -17.049072 -31.97818 -29.654144z" fill-rule="evenodd"/><defs><radialGradient id="p.11" gradientUnits="userSpaceOnUse" gradientTransform="matrix(7.50057203019047 1.3859344414914503 -1.3859344414914503 7.50057203019047 0.0 0.0)" spreadMethod="pad" cx="51.95888716729088" cy="25.50027047693909" fx="51.95888716729088" fy="25.50027047693909" r="7.500572204589844"><stop offset="0.0" stop-color="#ffffff"/><stop offset="1.0" stop-color="#ffffff" stop-opacity="0.0"/></radialGradient></defs><path fill="url(#p.11)" d="m322.93085 257.4672l0 0c4.7661743 -25.761688 22.710052 -44.043976 40.078735 -40.83464l0 0c8.340759 1.5411835 15.430664 7.9336853 19.710052 17.771225c4.279358 9.83754 5.397644 22.31427 3.1088562 34.685486l0 0c-4.7661743 25.761688 -22.710022 44.043976 -40.078735 40.834625l0 0c-17.368713 -3.20932 -27.585083 -26.695007 -22.818909 -52.456696z" fill-rule="evenodd"/><defs><radialGradient id="p.12" gradientUnits="userSpaceOnUse" gradientTransform="matrix(0.7910278490043794 -6.26513468051176 6.26513468051176 0.7910278490043794 0.0 0.0)" spreadMethod="pad" cx="-42.51130868997433" cy="46.95662867945931" fx="-42.51130868997433" fy="46.95662867945931" r="6.265134811401367"><stop offset="0.0" stop-color="#ffffff"/><stop offset="1.0" stop-color="#ffffff" stop-opacity="0.0"/></radialGradient></defs><path fill="url(#p.12)" d="m257.99506 323.81378l0 0c-18.542862 -2.348297 -32.425568 -13.35434 -31.007889 -24.582672l0 0c0.6808014 -5.392029 4.8710327 -10.115265 11.648926 -13.130615c6.777893 -3.0153503 15.588211 -4.0758057 24.492813 -2.94812l0 0c18.542847 2.348297 32.425537 13.35434 31.007874 24.582672l0 0c-1.4176636 11.2283325 -17.598877 18.427032 -36.141724 16.078735z" fill-rule="evenodd"/></g></svg>