<svg version="1.1" viewBox="0.0 0.0 411.18372703412075 439.0734908136483" fill="none" stroke="none" stroke-linecap="square" stroke-miterlimit="10" xmlns:xlink="http://www.w3.org/1999/xlink" xmlns="http://www.w3.org/2000/svg"><clipPath id="p.0"><path d="m0 0l411.18372 0l0 439.0735l-411.18372 0l0 -439.0735z" clip-rule="nonzero"/></clipPath><g clip-path="url(#p.0)"><path fill="#000000" fill-opacity="0.0" d="m0 0l411.18372 0l0 439.0735l-411.18372 0z" fill-rule="evenodd"/><path fill="#000000" fill-opacity="0.0" d="m47.814503 33.088158l0 0c65.63585 -55.621407 189.64272 -17.165945 276.97708 85.89268l0 0c87.33438 103.058624 104.9245 231.69418 39.288666 287.3156l0 0c-65.63583 55.6214 -189.6427 17.165924 -276.97708 -85.8927l0 0c-87.33438 -103.05861 -104.92452 -231.69418 -39.288685 -287.31558z" fill-rule="evenodd"/><path stroke="#ffffff" stroke-width="8.0" stroke-linejoin="round" stroke-linecap="butt" d="m47.814503 33.088158l0 0c65.63585 -55.621407 189.64272 -17.165945 276.97708 85.89268l0 0c87.33438 103.058624 104.9245 231.69418 39.288666 287.3156l0 0c-65.63583 55.6214 -189.6427 17.165924 -276.97708 -85.8927l0 0c-87.33438 -103.05861 -104.92452 -231.69418 -39.288685 -287.31558z" fill-rule="evenodd"/><path fill="#000000" fill-opacity="0.0" d="m324.7916 118.980835l0 0c10.708984 12.637085 8.235504 35.55603 -6.876251 63.714905c-15.111755 28.158875 -41.623962 59.25107 -73.70419 86.436646l-40.378265 -47.64821z" fill-rule="evenodd"/><path fill="#000000" fill-opacity="0.0" d="m324.7916 118.980835l0 0c10.708984 12.637085 8.235504 35.55603 -6.876251 63.714905c-15.111755 28.158875 -41.623962 59.25107 -73.70419 86.436646" fill-rule="evenodd"/><path stroke="#ffffff" stroke-width="8.0" stroke-linejoin="round" stroke-linecap="butt" d="m324.7916 118.980835l0 0c10.708984 12.637085 8.235504 35.55603 -6.876251 63.714905c-15.111755 28.158875 -41.623962 59.25107 -73.70419 86.436646" fill-rule="evenodd"/><path fill="#000000" fill-opacity="0.0" d="m87.830444 319.78748l0 0c10.708977 12.637085 33.496597 14.14917 63.34984 4.2036133c29.853241 -9.945587 64.32669 -30.534088 95.83658 -57.23633l-40.378265 -47.648224z" fill-rule="evenodd"/><path fill="#000000" fill-opacity="0.0" d="m87.830444 319.78748l0 0c10.708977 12.637085 33.496597 14.14917 63.34984 4.2036133c29.853241 -9.945587 64.32669 -30.534088 95.83658 -57.23633" fill-rule="evenodd"/><path stroke="#ffffff" stroke-width="8.0" stroke-linejoin="round" stroke-linecap="butt" d="m87.830444 319.78748l0 0c10.708977 12.637085 33.496597 14.14917 63.34984 4.2036133c29.853241 -9.945587 64.32669 -30.534088 95.83658 -57.23633" fill-rule="evenodd"/><path fill="#000000" fill-opacity="0.0" d="m273.32138 71.26297l0 0c9.051239 10.68087 5.588135 31.21505 -9.627411 57.085266c-15.21553 25.870209 -40.937164 54.95729 -71.50644 80.86243l-34.127686 -40.272263z" fill-rule="evenodd"/><path fill="#000000" fill-opacity="0.0" d="m273.32138 71.26297l0 0c9.051239 10.68087 5.588135 31.21505 -9.627411 57.085266c-15.21553 25.870209 -40.937164 54.95729 -71.50644 80.86243" fill-rule="evenodd"/><path stroke="#ffffff" stroke-width="8.0" stroke-linejoin="round" stroke-linecap="butt" d="m273.32138 71.26297l0 0c9.051239 10.68087 5.588135 31.21505 -9.627411 57.085266c-15.21553 25.870209 -40.937164 54.95729 -71.50644 80.86243" fill-rule="evenodd"/><path fill="#000000" fill-opacity="0.0" d="m47.521107 262.6116l0 0c9.051228 10.680878 29.659428 10.816467 57.291042 0.37695312c27.631607 -10.439499 60.02318 -30.598969 90.04895 -56.043533l-34.1277 -40.272263z" fill-rule="evenodd"/><path fill="#000000" fill-opacity="0.0" d="m47.521107 262.6116l0 0c9.051228 10.680878 29.659428 10.816467 57.291042 0.37695312c27.631607 -10.439499 60.02318 -30.598969 90.04895 -56.043533" fill-rule="evenodd"/><path stroke="#ffffff" stroke-width="8.0" stroke-linejoin="round" stroke-linecap="butt" d="m47.521107 262.6116l0 0c9.051228 10.680878 29.659428 10.816467 57.291042 0.37695312c27.631607 -10.439499 60.02318 -30.598969 90.04895 -56.043533" fill-rule="evenodd"/><path fill="#000000" fill-opacity="0.0" d="m366.4174 181.12057l0 0c9.0512085 10.680862 5.588135 31.215042 -9.627411 57.085266c-15.215546 25.870209 -40.937195 54.957306 -71.50644 80.86243l-34.1277 -40.272278z" fill-rule="evenodd"/><path fill="#000000" fill-opacity="0.0" d="m366.4174 181.12057l0 0c9.0512085 10.680862 5.588135 31.215042 -9.627411 57.085266c-15.215546 25.870209 -40.937195 54.957306 -71.50644 80.86243" fill-rule="evenodd"/><path stroke="#ffffff" stroke-width="8.0" stroke-linejoin="round" stroke-linecap="butt" d="m366.4174 181.12057l0 0c9.0512085 10.680862 5.588135 31.215042 -9.627411 57.085266c-15.215546 25.870209 -40.937195 54.957306 -71.50644 80.86243" fill-rule="evenodd"/><path fill="#000000" fill-opacity="0.0" d="m140.61711 372.4692l0 0c9.051224 10.680878 29.659424 10.816467 57.29103 0.37695312c27.631607 -10.439514 60.023193 -30.598969 90.04895 -56.04355l-34.127686 -40.272247z" fill-rule="evenodd"/><path fill="#000000" fill-opacity="0.0" d="m140.61711 372.4692l0 0c9.051224 10.680878 29.659424 10.816467 57.29103 0.37695312c27.631607 -10.439514 60.023193 -30.598969 90.04895 -56.04355" fill-rule="evenodd"/><path stroke="#ffffff" stroke-width="8.0" stroke-linejoin="round" stroke-linecap="butt" d="m140.61711 372.4692l0 0c9.051224 10.680878 29.659424 10.816467 57.29103 0.37695312c27.631607 -10.439514 60.023193 -30.598969 90.04895 -56.04355" fill-rule="evenodd"/><path fill="#000000" fill-opacity="0.0" d="m215.16405 30.377205l0 0c6.6299286 7.8236237 2.4427948 24.263336 -11.640274 45.70259c-14.083069 21.439262 -36.908478 46.121864 -63.454865 68.61793l-24.998184 -29.499008z" fill-rule="evenodd"/><path fill="#000000" fill-opacity="0.0" d="m215.16405 30.377205l0 0c6.6299286 7.8236237 2.4427948 24.263336 -11.640274 45.70259c-14.083069 21.439262 -36.908478 46.121864 -63.454865 68.61793" fill-rule="evenodd"/><path stroke="#ffffff" stroke-width="8.0" stroke-linejoin="round" stroke-linecap="butt" d="m215.16405 30.377205l0 0c6.6299286 7.8236237 2.4427948 24.263336 -11.640274 45.70259c-14.083069 21.439262 -36.908478 46.121864 -63.454865 68.61793" fill-rule="evenodd"/><path fill="#000000" fill-opacity="0.0" d="m19.0787 196.5447l0 0c6.6299286 7.8236237 23.346338 6.549164 46.471817 -3.5429993c23.125465 -10.092163 50.765686 -28.175354 76.84011 -50.271454l-24.998177 -29.499008z" fill-rule="evenodd"/><path fill="#000000" fill-opacity="0.0" d="m19.0787 196.5447l0 0c6.6299286 7.8236237 23.346338 6.549164 46.471817 -3.5429993c23.125465 -10.092163 50.765686 -28.175354 76.84011 -50.271454" fill-rule="evenodd"/><path stroke="#ffffff" stroke-width="8.0" stroke-linejoin="round" stroke-linecap="butt" d="m19.0787 196.5447l0 0c6.6299286 7.8236237 23.346338 6.549164 46.471817 -3.5429993c23.125465 -10.092163 50.765686 -28.175354 76.84011 -50.271454" fill-rule="evenodd"/><path fill="#000000" fill-opacity="0.0" d="m396.55893 260.51233l0 0c6.004547 7.0856323 2.0166626 22.140442 -11.086334 41.85254c-13.103027 19.712128 -34.247803 42.466858 -58.782776 63.25836l-22.640076 -26.71634z" fill-rule="evenodd"/><path fill="#000000" fill-opacity="0.0" d="m396.55893 260.51233l0 0c6.004547 7.0856323 2.0166626 22.140442 -11.086334 41.85254c-13.103027 19.712128 -34.247803 42.466858 -58.782776 63.25836" fill-rule="evenodd"/><path stroke="#ffffff" stroke-width="8.0" stroke-linejoin="round" stroke-linecap="butt" d="m396.55893 260.51233l0 0c6.004547 7.0856323 2.0166626 22.140442 -11.086334 41.85254c-13.103027 19.712128 -34.247803 42.466858 -58.782776 63.25836" fill-rule="evenodd"/><path fill="#000000" fill-opacity="0.0" d="m215.33105 414.08923l0 0c6.004532 7.0856323 21.336319 5.7684937 42.62256 -3.6616821c21.286224 -9.430145 46.783264 -26.200836 70.88202 -46.62271l-22.640106 -26.71637z" fill-rule="evenodd"/><path fill="#000000" fill-opacity="0.0" d="m215.33105 414.08923l0 0c6.004532 7.0856323 21.336319 5.7684937 42.62256 -3.6616821c21.286224 -9.430145 46.783264 -26.200836 70.88202 -46.62271" fill-rule="evenodd"/><path stroke="#ffffff" stroke-width="8.0" stroke-linejoin="round" stroke-linecap="butt" d="m215.33105 414.08923l0 0c6.004532 7.0856323 21.336319 5.7684937 42.62256 -3.6616821c21.286224 -9.430145 46.783264 -26.200836 70.88202 -46.62271" fill-rule="evenodd"/><path fill="#000000" fill-opacity="0.0" d="m138.48189 7.1021533l0 0c3.672104 4.333259 0.2649994 14.360687 -9.471802 27.876366c-9.736809 13.515678 -25.005714 29.412472 -42.44774 44.19327l-13.845703 -16.338573z" fill-rule="evenodd"/><path fill="#000000" fill-opacity="0.0" d="m138.48189 7.1021533l0 0c3.672104 4.333259 0.2649994 14.360687 -9.471802 27.876366c-9.736809 13.515678 -25.005714 29.412472 -42.44774 44.19327" fill-rule="evenodd"/><path stroke="#ffffff" stroke-width="8.0" stroke-linejoin="round" stroke-linecap="butt" d="m138.48189 7.1021533l0 0c3.672104 4.333259 0.2649994 14.360687 -9.471802 27.876366c-9.736809 13.515678 -25.005714 29.412472 -42.44774 44.19327" fill-rule="evenodd"/><path fill="#000000" fill-opacity="0.0" d="m9.646111 116.280716l0 0c3.6721087 4.3332596 13.999447 2.7217865 28.710121 -4.4799194c14.71067 -7.201706 32.599655 -19.403717 49.731575 -33.921722l-13.845703 -16.338573z" fill-rule="evenodd"/><path fill="#000000" fill-opacity="0.0" d="m9.646111 116.280716l0 0c3.6721087 4.3332596 13.999447 2.7217865 28.710121 -4.4799194c14.71067 -7.201706 32.599655 -19.403717 49.731575 -33.921722" fill-rule="evenodd"/><path stroke="#ffffff" stroke-width="8.0" stroke-linejoin="round" stroke-linecap="butt" d="m9.646111 116.280716l0 0c3.6721087 4.3332596 13.999447 2.7217865 28.710121 -4.4799194c14.71067 -7.201706 32.599655 -19.403717 49.731575 -33.921722" fill-rule="evenodd"/><path fill="#000000" fill-opacity="0.0" d="m368.9884 402.8425l0 0c-10.680878 9.0512085 -37.935547 -2.3423462 -75.76828 -31.674225c-37.83275 -29.33191 -83.144516 -74.19943 -125.96724 -124.73222l40.272263 -34.1277z" fill-rule="evenodd"/><path fill="#000000" fill-opacity="0.0" d="m368.9884 402.8425l0 0c-10.680878 9.0512085 -37.935547 -2.3423462 -75.76828 -31.674225c-37.83275 -29.33191 -83.144516 -74.19943 -125.96724 -124.73222" fill-rule="evenodd"/><path stroke="#ffffff" stroke-width="8.0" stroke-linejoin="round" stroke-linecap="butt" d="m368.9884 402.8425l0 0c-10.680878 9.0512085 -37.935547 -2.3423462 -75.76828 -31.674225c-37.83275 -29.33191 -83.144516 -74.19943 -125.96724 -124.73222" fill-rule="evenodd"/><path fill="#000000" fill-opacity="0.0" d="m52.677803 29.581297l0 0c-10.68087 9.0512295 -4.2154655 37.448914 17.9739 78.9459c22.189362 41.496986 58.28505 92.69404 100.34642 142.3284l40.272263 -34.1277z" fill-rule="evenodd"/><path fill="#000000" fill-opacity="0.0" d="m52.677803 29.581297l0 0c-10.68087 9.0512295 -4.2154655 37.448914 17.9739 78.9459c22.189362 41.496986 58.28505 92.69404 100.34642 142.3284" fill-rule="evenodd"/><path stroke="#ffffff" stroke-width="8.0" stroke-linejoin="round" stroke-linecap="butt" d="m52.677803 29.581297l0 0c-10.68087 9.0512295 -4.2154655 37.448914 17.9739 78.9459c22.189362 41.496986 58.28505 92.69404 100.34642 142.3284" fill-rule="evenodd"/><path fill="#000000" fill-opacity="0.0" d="m304.62628 428.90173l0 0c-8.479492 7.18573 -32.129364 -4.234436 -65.74696 -31.74823c-33.617584 -27.513794 -74.44908 -68.8674 -113.51203 -114.9635l31.971947 -27.093811z" fill-rule="evenodd"/><path fill="#000000" fill-opacity="0.0" d="m304.62628 428.90173l0 0c-8.479492 7.18573 -32.129364 -4.234436 -65.74696 -31.74823c-33.617584 -27.513794 -74.44908 -68.8674 -113.51203 -114.9635" fill-rule="evenodd"/><path stroke="#ffffff" stroke-width="8.0" stroke-linejoin="round" stroke-linecap="butt" d="m304.62628 428.90173l0 0c-8.479492 7.18573 -32.129364 -4.234436 -65.74696 -31.74823c-33.617584 -27.513794 -74.44908 -68.8674 -113.51203 -114.9635" fill-rule="evenodd"/><path fill="#000000" fill-opacity="0.0" d="m16.08723 88.41228l0 0c-8.479488 7.18573 -1.3698711 32.063187 19.764816 69.15961c21.134686 37.096436 54.563198 83.37309 92.93164 128.64964l31.971954 -27.093811z" fill-rule="evenodd"/><path fill="#000000" fill-opacity="0.0" d="m16.08723 88.41228l0 0c-8.479488 7.18573 -1.3698711 32.063187 19.764816 69.15961c21.134686 37.096436 54.563198 83.37309 92.93164 128.64964" fill-rule="evenodd"/><path stroke="#ffffff" stroke-width="8.0" stroke-linejoin="round" stroke-linecap="butt" d="m16.08723 88.41228l0 0c-8.479488 7.18573 -1.3698711 32.063187 19.764816 69.15961c21.134686 37.096436 54.563198 83.37309 92.93164 128.64964" fill-rule="evenodd"/><path fill="#000000" fill-opacity="0.0" d="m398.26834 338.38547l0 0c-10.680878 9.0512085 -35.99057 -0.047180176 -70.36124 -25.29367c-34.370667 -25.24646 -74.98685 -64.57298 -112.91344 -109.328125l40.272263 -34.1277z" fill-rule="evenodd"/><path fill="#000000" fill-opacity="0.0" d="m398.26834 338.38547l0 0c-10.680878 9.0512085 -35.99057 -0.047180176 -70.36124 -25.29367c-34.370667 -25.24646 -74.98685 -64.57298 -112.91344 -109.328125" fill-rule="evenodd"/><path stroke="#ffffff" stroke-width="8.0" stroke-linejoin="round" stroke-linecap="butt" d="m398.26834 338.38547l0 0c-10.680878 9.0512085 -35.99057 -0.047180176 -70.36124 -25.29367c-34.370667 -25.24646 -74.98685 -64.57298 -112.91344 -109.328125" fill-rule="evenodd"/><path fill="#000000" fill-opacity="0.0" d="m118.123 7.8009615l0 0c-10.680862 9.051229 -6.1258545 35.19456 12.662979 72.67876c18.788834 37.484207 50.272415 83.23877 87.524704 127.1982l40.272263 -34.1277z" fill-rule="evenodd"/><path fill="#000000" fill-opacity="0.0" d="m118.123 7.8009615l0 0c-10.680862 9.051229 -6.1258545 35.19456 12.662979 72.67876c18.788834 37.484207 50.272415 83.23877 87.524704 127.1982" fill-rule="evenodd"/><path stroke="#ffffff" stroke-width="8.0" stroke-linejoin="round" stroke-linecap="butt" d="m118.123 7.8009615l0 0c-10.680862 9.051229 -6.1258545 35.19456 12.662979 72.67876c18.788834 37.484207 50.272415 83.23877 87.524704 127.1982" fill-rule="evenodd"/><path fill="#000000" fill-opacity="0.0" d="m404.74356 297.00366l0 0c-5.757477 4.878998 -24.21576 -5.7076416 -51.31424 -29.431c-27.09851 -23.723373 -60.617462 -58.640167 -93.183044 -97.06909l21.708527 -18.396332z" fill-rule="evenodd"/><path fill="#000000" fill-opacity="0.0" d="m404.74356 297.00366l0 0c-5.757477 4.878998 -24.21576 -5.7076416 -51.31424 -29.431c-27.09851 -23.723373 -60.617462 -58.640167 -93.183044 -97.06909" fill-rule="evenodd"/><path stroke="#ffffff" stroke-width="8.0" stroke-linejoin="round" stroke-linecap="butt" d="m404.74356 297.00366l0 0c-5.757477 4.878998 -24.21576 -5.7076416 -51.31424 -29.431c-27.09851 -23.723373 -60.617462 -58.640167 -93.183044 -97.06909" fill-rule="evenodd"/><path fill="#000000" fill-opacity="0.0" d="m164.19728 13.147905l0 0c-5.7574615 4.879011 1.4275208 24.552607 19.974335 54.692818c18.546814 30.14022 46.936203 68.278114 78.922806 106.02381l21.708527 -18.396332z" fill-rule="evenodd"/><path fill="#000000" fill-opacity="0.0" d="m164.19728 13.147905l0 0c-5.7574615 4.879011 1.4275208 24.552607 19.974335 54.692818c18.546814 30.14022 46.936203 68.278114 78.922806 106.02381" fill-rule="evenodd"/><path stroke="#ffffff" stroke-width="8.0" stroke-linejoin="round" stroke-linecap="butt" d="m164.19728 13.147905l0 0c-5.7574615 4.879011 1.4275208 24.552607 19.974335 54.692818c18.546814 30.14022 46.936203 68.278114 78.922806 106.02381" fill-rule="evenodd"/><path fill="#000000" fill-opacity="0.0" d="m215.18729 413.0663l0 0c-5.0308228 4.2632446 -20.53299 -4.2479553 -43.096207 -23.661194c-22.563217 -19.413269 -50.33922 -48.138367 -77.2176 -79.85608l18.968758 -16.074585z" fill-rule="evenodd"/><path fill="#000000" fill-opacity="0.0" d="m215.18729 413.0663l0 0c-5.0308228 4.2632446 -20.53299 -4.2479553 -43.096207 -23.661194c-22.563217 -19.413269 -50.33922 -48.138367 -77.2176 -79.85608" fill-rule="evenodd"/><path stroke="#ffffff" stroke-width="8.0" stroke-linejoin="round" stroke-linecap="butt" d="m215.18729 413.0663l0 0c-5.0308228 4.2632446 -20.53299 -4.2479553 -43.096207 -23.661194c-22.563217 -19.413269 -50.33922 -48.138367 -77.2176 -79.85608" fill-rule="evenodd"/><path fill="#000000" fill-opacity="0.0" d="m16.64977 178.78282l0 0c-5.0308256 4.2632446 0.631958 20.727692 15.742601 45.77133c15.110645 25.043655 38.431366 56.615067 64.83187 87.768875l18.968758 -16.074585z" fill-rule="evenodd"/><path fill="#000000" fill-opacity="0.0" d="m16.64977 178.78282l0 0c-5.0308256 4.2632446 0.631958 20.727692 15.742601 45.77133c15.110645 25.043655 38.431366 56.615067 64.83187 87.768875" fill-rule="evenodd"/><path stroke="#ffffff" stroke-width="8.0" stroke-linejoin="round" stroke-linecap="butt" d="m16.64977 178.78282l0 0c-5.0308256 4.2632446 0.631958 20.727692 15.742601 45.77133c15.110645 25.043655 38.431366 56.615067 64.83187 87.768875" fill-rule="evenodd"/><path fill="#000000" fill-opacity="0.0" d="m380.67462 208.43472l0 0c-2.4971008 2.1160889 -12.00766 -4.2513885 -26.439453 -17.701675c-14.431824 -13.450287 -32.602722 -32.881607 -50.51529 -54.01927l9.415283 -7.9787445z" fill-rule="evenodd"/><path fill="#000000" fill-opacity="0.0" d="m380.67462 208.43472l0 0c-2.4971008 2.1160889 -12.00766 -4.2513885 -26.439453 -17.701675c-14.431824 -13.450287 -32.602722 -32.881607 -50.51529 -54.01927" fill-rule="evenodd"/><path stroke="#ffffff" stroke-width="8.0" stroke-linejoin="round" stroke-linecap="butt" d="m380.67462 208.43472l0 0c-2.4971008 2.1160889 -12.00766 -4.2513885 -26.439453 -17.701675c-14.431824 -13.450287 -32.602722 -32.881607 -50.51529 -54.01927" fill-rule="evenodd"/><path fill="#000000" fill-opacity="0.0" d="m248.36313 52.301018l0 0c-2.4970856 2.1160927 2.0973206 12.393135 12.772522 28.570297c10.675201 16.177155 26.556732 36.929283 44.15085 57.69114l9.415283 -7.9787445z" fill-rule="evenodd"/><path fill="#000000" fill-opacity="0.0" d="m248.36313 52.301018l0 0c-2.4970856 2.1160927 2.0973206 12.393135 12.772522 28.570297c10.675201 16.177155 26.556732 36.929283 44.15085 57.69114" fill-rule="evenodd"/><path stroke="#ffffff" stroke-width="8.0" stroke-linejoin="round" stroke-linecap="butt" d="m248.36313 52.301018l0 0c-2.4970856 2.1160927 2.0973206 12.393135 12.772522 28.570297c10.675201 16.177155 26.556732 36.929283 44.15085 57.69114" fill-rule="evenodd"/></g></svg>