<svg version="1.1" viewBox="0.0 0.0 411.18372703412075 439.0734908136483" fill="none" stroke="none" stroke-linecap="square" stroke-miterlimit="10" xmlns:xlink="http://www.w3.org/1999/xlink" xmlns="http://www.w3.org/2000/svg"><clipPath id="p.0"><path d="m0 0l411.18372 0l0 439.0735l-411.18372 0l0 -439.0735z" clip-rule="nonzero"/></clipPath><g clip-path="url(#p.0)"><path fill="#000000" fill-opacity="0.0" d="m0 0l411.18372 0l0 439.0735l-411.18372 0z" fill-rule="evenodd"/><path fill="#ffffff" d="m47.80831 33.085354l0 0c65.63926 -55.619858 189.64581 -17.165699 276.97638 85.88977l0 0c87.33057 103.05546 104.914856 231.68723 39.275574 287.30707l0 0c-65.63925 55.619873 -189.6458 17.16571 -276.97638 -85.88974l0 0c-87.33057 -103.05548 -104.91485 -231.68724 -39.27559 -287.3071z" fill-rule="evenodd"/><path stroke="#ffffff" stroke-width="8.0" stroke-linejoin="round" stroke-linecap="butt" d="m47.80831 33.085354l0 0c65.63926 -55.619858 189.64581 -17.165699 276.97638 85.88977l0 0c87.33057 103.05546 104.914856 231.68723 39.275574 287.30707l0 0c-65.63925 55.619873 -189.6458 17.16571 -276.97638 -85.88974l0 0c-87.33057 -103.05548 -104.91485 -231.68724 -39.27559 -287.3071z" fill-rule="evenodd"/></g></svg>